<svg viewBox="0 0 16 16" fill="none"><g clip-path="url(#clip0_310_7)"><g clip-path="url(#clip1_310_7)"><path fill-rule="evenodd" clip-rule="evenodd" d="M0.195774 2.76393C0 3.36646 0 4.11097 0 5.6V10.4C0 11.889 0 12.6335 0.195774 13.2361C0.591446 14.4538 1.54618 15.4086 2.76393 15.8042C3.36646 16 4.11097 16 5.6 16H10.4C11.889 16 12.6335 16 13.2361 15.8042C14.4538 15.4086 15.4086 14.4538 15.8042 13.2361C16 12.6335 16 11.889 16 10.4V5.6C16 4.11097 16 3.36646 15.8042 2.76393C15.4086 1.54618 14.4538 0.591446 13.2361 0.195774C12.6335 0 11.889 0 10.4 0H5.6C4.11097 0 3.36646 0 2.76393 0.195774C1.54618 0.591446 0.591446 1.54618 0.195774 2.76393ZM4 7.25C3.58579 7.25 3.25 7.58579 3.25 8C3.25 8.41421 3.58579 8.75 4 8.75H12C12.4142 8.75 12.75 8.41421 12.75 8C12.75 7.58579 12.4142 7.25 12 7.25H4Z" fill="currentColor"/></g></g><defs><clipPath id="clip0_310_7"><rect width="16" height="16" fill="currentColor"/></clipPath><clipPath id="clip1_310_7"><rect width="16" height="16" fill="currentColor"/></clipPath></defs></svg>