<svg viewBox="0 0 16 16" fill="none"><g clip-path="url(#clip0_311_146)"><path fill-rule="evenodd" clip-rule="evenodd" d="M0.195774 2.76393C0 3.36646 0 4.11097 0 5.6V10.4C0 11.889 0 12.6335 0.195774 13.2361C0.591446 14.4538 1.54618 15.4086 2.76393 15.8042C3.36646 16 4.11097 16 5.6 16H10.4C11.889 16 12.6335 16 13.2361 15.8042C14.4538 15.4086 15.4086 14.4538 15.8042 13.2361C16 12.6335 16 11.889 16 10.4V5.6C16 4.11097 16 3.36646 15.8042 2.76393C15.4086 1.54618 14.4538 0.591446 13.2361 0.195774C12.6335 0 11.889 0 10.4 0H5.6C4.11097 0 3.36646 0 2.76393 0.195774C1.54618 0.591446 0.591446 1.54618 0.195774 2.76393ZM12.5401 5.85372C12.8275 5.55544 12.8187 5.08065 12.5204 4.79325C12.2221 4.50584 11.7473 4.51466 11.4599 4.81294L6.66401 9.79038L4.54055 7.58263C4.25341 7.2841 3.77862 7.27486 3.48009 7.562C3.18155 7.84914 3.17231 8.32392 3.45945 8.62246L6.12298 11.3917C6.2643 11.5386 6.45934 11.6217 6.6632 11.6218C6.86706 11.6219 7.06217 11.539 7.20362 11.3922L12.5401 5.85372Z" fill="currentColor"/></g><defs><clipPath id="clip0_311_146"><rect width="16" height="16" fill="currentColor"/></clipPath></defs></svg>