<svg viewBox="0 0 24 24" fill="none"><path fill-rule="evenodd" clip-rule="evenodd" d="M5.07257 10.4588L4.76462 10.5358C5.00397 6.74803 8.15187 3.75 12 3.75C15.8481 3.75 18.996 6.74803 19.2354 10.5358L18.9274 10.4588C18.0753 10.2457 17.25 10.8903 17.25 11.7685V17.2315C17.25 18.1097 18.0753 18.7543 18.9274 18.5412L19.25 18.4606V18.5C19.25 19.1904 18.6904 19.75 18 19.75H15.622C15.3131 18.8761 14.4796 18.25 13.5 18.25H10.5C9.25735 18.25 8.25 19.2574 8.25 20.5C8.25 21.7426 9.25735 22.75 10.5 22.75H13.5C14.4796 22.75 15.3131 22.1239 15.622 21.25H18C19.5188 21.25 20.75 20.0188 20.75 18.5V18.0842C21.9298 17.7501 22.75 16.6717 22.75 15.4384V13.5616C22.75 12.3282 21.9296 11.2497 20.7496 10.9157C20.7044 6.12203 16.8044 2.25 12 2.25C7.19563 2.25 3.29564 6.12204 3.2504 10.9157C2.07036 11.2497 1.25 12.3282 1.25 13.5616V15.4384C1.25 16.7004 2.10883 17.8002 3.33302 18.1063L5.07253 18.5412C5.92465 18.7543 6.75 18.1098 6.75 17.2315V11.7685C6.75 10.8902 5.92468 10.2457 5.07257 10.4588ZM3.69684 12.3489L5.25 11.9606V17.0394L3.69684 16.6511C3.14035 16.512 2.75 16.012 2.75 15.4384V13.5616C2.75 12.988 3.14036 12.488 3.69684 12.3489ZM20.3032 12.3489L18.75 11.9606V17.0394L20.3032 16.6511C20.8596 16.512 21.25 16.012 21.25 15.4384V13.5616C21.25 12.988 20.8596 12.488 20.3032 12.3489ZM10.5 19.75C10.0858 19.75 9.75 20.0858 9.75 20.5C9.75 20.9142 10.0858 21.25 10.5 21.25H13.5C13.9142 21.25 14.25 20.9142 14.25 20.5C14.25 20.0858 13.9142 19.75 13.5 19.75H10.5Z" fill="currentColor"/></svg>