<svg viewBox="0 0 24 24" fill="none"><path fill-rule="evenodd" clip-rule="evenodd" d="M6.79585 4.31072C8.26755 3.42498 10.0501 2.91303 12 2.91303C17.16 2.91303 21.087 6.4907 21.087 10.6247C21.087 12.3668 20.3913 13.9964 19.1851 15.3061L19.185 15.306L19.1753 15.3168C17.5628 17.122 14.963 18.3197 12 18.3197C11.8392 18.3197 11.681 18.3602 11.54 18.4376L6.77394 21.0516L6.77389 21.0515L6.7623 21.058C6.69205 21.0979 6.60553 21.0973 6.52742 21.0501C6.49035 21.0278 6.47342 21.0046 6.46813 20.9948L6.4677 20.994C6.46583 20.9906 6.46541 20.9898 6.46593 20.985L6.92153 17.6696C6.97227 17.3003 6.80389 16.9352 6.49008 16.734C4.2738 15.3135 2.91304 13.0833 2.91304 10.6247C2.91304 8.04838 4.40161 5.72345 6.78869 4.31499L6.78871 4.31502L6.79585 4.31072ZM12 1C9.71492 1 7.59095 1.60031 5.81293 2.66951C2.94286 4.36442 1 7.26614 1 10.6247C1 13.6235 2.55557 16.2621 4.94573 17.9954L4.56977 20.7313L4.56973 20.7313L4.56854 20.7406C4.45766 21.611 4.93218 22.3219 5.5391 22.6881C6.14393 23.0531 6.96729 23.1374 7.69884 22.7262L12.2495 20.2303C15.6123 20.165 18.6421 18.782 20.5972 16.5967C22.0907 14.9727 23 12.8938 23 10.6247C23 5.17967 17.9426 1 12 1ZM7.24133 10.5652C7.24133 10.0369 7.66958 9.60865 8.19785 9.60865H8.20644C8.73471 9.60865 9.16296 10.0369 9.16296 10.5652C9.16296 11.0934 8.73471 11.5217 8.20644 11.5217H8.19785C7.66958 11.5217 7.24133 11.0934 7.24133 10.5652ZM12.0251 9.60865C11.4968 9.60865 11.0686 10.0369 11.0686 10.5652C11.0686 11.0934 11.4968 11.5217 12.0251 11.5217H12.0337C12.562 11.5217 12.9902 11.0934 12.9902 10.5652C12.9902 10.0369 12.562 9.60865 12.0337 9.60865H12.0251ZM15.8519 9.60865C15.3236 9.60865 14.8954 10.0369 14.8954 10.5652C14.8954 11.0934 15.3236 11.5217 15.8519 11.5217H15.8604C16.3887 11.5217 16.8169 11.0934 16.8169 10.5652C16.8169 10.0369 16.3887 9.60865 15.8604 9.60865H15.8519Z" fill="currentColor"/></svg>