<svg viewBox="0 0 24 24" fill="none"><path fill-rule="evenodd" clip-rule="evenodd" d="M12 2.91272C10.0915 2.91272 8.34416 3.41666 6.89701 4.29332L6.88927 4.298C4.54403 5.69081 3.04651 8.01318 3.04651 10.6231C3.04651 13.1136 4.41569 15.3435 6.59524 16.7496C6.91009 16.9527 7.0774 17.303 7.02898 17.6577L6.57636 20.9729C6.57393 20.9952 6.57822 21.0074 6.58353 21.0173C6.59102 21.0312 6.6063 21.0491 6.63044 21.0638C6.6545 21.0784 6.67614 21.083 6.68916 21.0835C6.69731 21.0839 6.70961 21.0835 6.73251 21.0705L6.74514 21.0633L11.4796 18.4498C11.6372 18.3628 11.8169 18.3169 12 18.3169C14.8969 18.3169 17.4529 17.1391 19.0487 15.3411L19.0585 15.33C20.2533 14.0242 20.9535 12.3865 20.9535 10.6231C20.9535 6.42715 17.0209 2.91272 12 2.91272ZM5.78779 2.6859C7.5687 1.60806 9.7018 1 12 1C18.0079 1 23 5.24165 23 10.6231C23 12.8704 22.1058 14.9403 20.619 16.5677C18.6776 18.7518 15.6562 20.1515 12.2854 20.2264L7.7914 22.7073C6.24999 23.5793 4.33768 22.3784 4.54429 20.7459L4.5454 20.7372L4.92273 17.9737C2.53103 16.2293 1 13.5922 1 10.6231C1 7.29927 2.91101 4.39598 5.78779 2.6859Z" fill="currentColor"/></svg>