<svg viewBox="0 0 24 24" fill="none"><path d="M9.89 17.07C9.71267 17.07 9.56333 17.0094 9.442 16.888C9.32067 16.7667 9.26 16.6174 9.26 16.44V15.18H8.504C8.364 15.18 8.24267 15.1334 8.14 15.04C8.04667 14.9374 8 14.816 8 14.676C8 14.536 8.04667 14.4147 8.14 14.312C8.24267 14.2094 8.364 14.158 8.504 14.158H9.26V13.262H8.504C8.364 13.262 8.24267 13.2154 8.14 13.122C8.04667 13.0194 8 12.898 8 12.758C8 12.618 8.04667 12.4967 8.14 12.394C8.24267 12.2914 8.364 12.24 8.504 12.24H9.26V7.87203C9.26 7.69469 9.32067 7.54536 9.442 7.42403C9.56333 7.29336 9.71267 7.22803 9.89 7.22803H12.662C13.5487 7.22803 14.272 7.37736 14.832 7.67603C15.392 7.96536 15.7933 8.34336 16.036 8.81003C16.2787 9.26736 16.4 9.75736 16.4 10.28C16.4 10.8214 16.2647 11.3207 15.994 11.778C15.7327 12.226 15.3127 12.5854 14.734 12.856C14.1553 13.1267 13.418 13.262 12.522 13.262H10.534V14.158H13.25C13.39 14.158 13.5113 14.2094 13.614 14.312C13.7167 14.4147 13.768 14.536 13.768 14.676C13.768 14.8254 13.7167 14.9467 13.614 15.04C13.5207 15.1334 13.3993 15.18 13.25 15.18H10.534V16.44C10.534 16.6174 10.4687 16.7667 10.338 16.888C10.2167 17.0094 10.0673 17.07 9.89 17.07ZM12.396 12.24C13.3667 12.24 14.062 12.0534 14.482 11.68C14.9113 11.3067 15.126 10.8494 15.126 10.308C15.126 9.77603 14.93 9.33269 14.538 8.97803C14.1553 8.61403 13.488 8.43203 12.536 8.43203H10.534V12.24H12.396Z" fill="currentColor"/><path fill-rule="evenodd" clip-rule="evenodd" d="M12 2.75C6.89421 2.75 2.75 6.89421 2.75 12C2.75 17.1058 6.89421 21.25 12 21.25C17.1058 21.25 21.25 17.1058 21.25 12C21.25 11.5858 21.5858 11.25 22 11.25C22.4142 11.25 22.75 11.5858 22.75 12C22.75 17.9342 17.9342 22.75 12 22.75C6.06579 22.75 1.25 17.9342 1.25 12C1.25 6.06579 6.06579 1.25 12 1.25C12.4142 1.25 12.75 1.58579 12.75 2C12.75 2.41421 12.4142 2.75 12 2.75Z" fill="currentColor"/><path fill-rule="evenodd" clip-rule="evenodd" d="M22.5303 2.53033C22.8232 2.23744 22.8232 1.76256 22.5303 1.46967C22.2374 1.17678 21.7626 1.17678 21.4697 1.46967L17.75 5.18934V3C17.75 2.58579 17.4142 2.25 17 2.25C16.5858 2.25 16.25 2.58579 16.25 3V7C16.25 7.10169 16.2702 7.19866 16.3069 7.28709C16.3435 7.37555 16.3978 7.45842 16.4697 7.53033C16.5416 7.60224 16.6245 7.65649 16.7129 7.69309C16.8013 7.72976 16.8983 7.75 17 7.75H21C21.4142 7.75 21.75 7.41421 21.75 7C21.75 6.58579 21.4142 6.25 21 6.25H18.8107L22.5303 2.53033Z" fill="currentColor"/></svg>