<svg viewBox="0 0 24 24" fill="none"><path d="M9.89 17.07C9.71267 17.07 9.56333 17.0094 9.442 16.888C9.32067 16.7667 9.26 16.6174 9.26 16.44V15.18H8.504C8.364 15.18 8.24267 15.1334 8.14 15.04C8.04667 14.9374 8 14.816 8 14.676C8 14.536 8.04667 14.4147 8.14 14.312C8.24267 14.2094 8.364 14.158 8.504 14.158H9.26V13.262H8.504C8.364 13.262 8.24267 13.2154 8.14 13.122C8.04667 13.0194 8 12.898 8 12.758C8 12.618 8.04667 12.4967 8.14 12.394C8.24267 12.2914 8.364 12.24 8.504 12.24H9.26V7.87203C9.26 7.69469 9.32067 7.54536 9.442 7.42403C9.56333 7.29336 9.71267 7.22803 9.89 7.22803H12.662C13.5487 7.22803 14.272 7.37736 14.832 7.67603C15.392 7.96536 15.7933 8.34336 16.036 8.81003C16.2787 9.26736 16.4 9.75736 16.4 10.28C16.4 10.8214 16.2647 11.3207 15.994 11.778C15.7327 12.226 15.3127 12.5854 14.734 12.856C14.1553 13.1267 13.418 13.262 12.522 13.262H10.534V14.158H13.25C13.39 14.158 13.5113 14.2094 13.614 14.312C13.7167 14.4147 13.768 14.536 13.768 14.676C13.768 14.8254 13.7167 14.9467 13.614 15.04C13.5207 15.1334 13.3993 15.18 13.25 15.18H10.534V16.44C10.534 16.6174 10.4687 16.7667 10.338 16.888C10.2167 17.0094 10.0673 17.07 9.89 17.07ZM12.396 12.24C13.3667 12.24 14.062 12.0534 14.482 11.68C14.9113 11.3067 15.126 10.8494 15.126 10.308C15.126 9.77603 14.93 9.33269 14.538 8.97803C14.1553 8.61403 13.488 8.43203 12.536 8.43203H10.534V12.24H12.396Z" fill="currentColor"/><path fill-rule="evenodd" clip-rule="evenodd" d="M12 2.75C6.89421 2.75 2.75 6.89421 2.75 12C2.75 17.1058 6.89421 21.25 12 21.25C17.1058 21.25 21.25 17.1058 21.25 12C21.25 11.5858 21.5858 11.25 22 11.25C22.4142 11.25 22.75 11.5858 22.75 12C22.75 17.9342 17.9342 22.75 12 22.75C6.06579 22.75 1.25 17.9342 1.25 12C1.25 6.06579 6.06579 1.25 12 1.25C12.4142 1.25 12.75 1.58579 12.75 2C12.75 2.41421 12.4142 2.75 12 2.75Z" fill="currentColor"/><path fill-rule="evenodd" clip-rule="evenodd" d="M18 1.25C17.5858 1.25 17.25 1.58579 17.25 2C17.25 2.41421 17.5858 2.75 18 2.75H20.1893L16.4697 6.46967C16.1768 6.76256 16.1768 7.23744 16.4697 7.53033C16.7626 7.82322 17.2374 7.82322 17.5303 7.53033L21.25 3.81066V6C21.25 6.41421 21.5858 6.75 22 6.75C22.4142 6.75 22.75 6.41421 22.75 6V2C22.75 1.89831 22.7298 1.80134 22.6931 1.71291C22.6565 1.62445 22.6022 1.54158 22.5303 1.46967C22.4584 1.39776 22.3755 1.34351 22.2871 1.30691C22.1987 1.27024 22.1017 1.25 22 1.25H18Z" fill="currentColor"/></svg>