<svg viewBox="0 0 24 24" fill="none"><path d="M12 18.74C9.33 18.74 6.66 17.72 4.63 15.69L1.47 12.53C1.18 12.24 1.18 11.76 1.47 11.47L4.63 8.31C8.69 4.25 15.31 4.25 19.37 8.31L22.53 11.47C22.82 11.76 22.82 12.24 22.53 12.53L19.37 15.69C17.34 17.72 14.67 18.74 12 18.74ZM3.06 12L5.69 14.63C7.38 16.32 9.62 17.24 12 17.24C14.38 17.24 16.62 16.31 18.31 14.63L20.94 12L18.31 9.37C16.62 7.68 14.38 6.76 12 6.76C9.62 6.76 7.38 7.69 5.69 9.37L3.06 12Z" fill="currentColor"/><path d="M12 16.09C9.74 16.09 7.91 14.26 7.91 12C7.91 9.74 9.74 7.91 12 7.91C14.26 7.91 16.09 9.74 16.09 12C16.09 14.26 14.26 16.09 12 16.09ZM12 9.41C10.57 9.41 9.41 10.57 9.41 12C9.41 13.43 10.57 14.59 12 14.59C13.43 14.59 14.59 13.43 14.59 12C14.59 10.57 13.43 9.41 12 9.41Z" fill="currentColor"/></svg>