<svg viewBox="0 0 24 24" fill="none"><path d="M11.99 18.74C11.43 18.74 10.86 18.69 10.3 18.6C9.89 18.53 9.61 18.15 9.68 17.74C9.75 17.33 10.14 17.05 10.54 17.12C13.37 17.59 16.28 16.66 18.31 14.63L20.94 12L18.31 9.37C18.02 9.08 18.02 8.6 18.31 8.31C18.6 8.02 19.08 8.02 19.37 8.31L22.53 11.47C22.82 11.76 22.82 12.24 22.53 12.53L19.37 15.69C17.4 17.66 14.73 18.74 11.99 18.74Z" fill="currentColor"/><path d="M12 16.09C11.59 16.09 11.25 15.75 11.25 15.34C11.25 14.93 11.59 14.59 12 14.59C12.27 14.59 12.54 14.55 12.8 14.46C13.55 14.21 14.16 13.62 14.43 12.88C14.53 12.6 14.58 12.3 14.58 12C14.58 11.59 14.92 11.25 15.33 11.25C15.74 11.25 16.08 11.59 16.08 12C16.08 12.48 16 12.95 15.84 13.39C15.41 14.57 14.45 15.5 13.26 15.89C12.85 16.02 12.43 16.09 11.99 16.09H12Z" fill="currentColor"/><path d="M20.53 3.47C20.24 3.18 19.76 3.18 19.47 3.47L16.61 6.33C12.64 4.37 7.78 5.15 4.63 8.31L1.47 11.47C1.18 11.76 1.18 12.24 1.47 12.53L4.63 15.69C5.07 16.13 5.55 16.53 6.06 16.88L3.47 19.47C3.18 19.76 3.18 20.24 3.47 20.53C3.62 20.68 3.81 20.75 4 20.75C4.19 20.75 4.38 20.68 4.53 20.53L20.53 4.53C20.82 4.24 20.82 3.76 20.53 3.47ZM9.71 13.23C9.52 12.85 9.41 12.44 9.41 12C9.41 10.57 10.57 9.41 12 9.41C12.44 9.41 12.85 9.52 13.23 9.71L9.71 13.23ZM14.32 8.62C13.64 8.16 12.84 7.91 12 7.91C9.74 7.91 7.91 9.74 7.91 12C7.91 12.84 8.16 13.64 8.62 14.32L7.14 15.8C6.62 15.47 6.14 15.08 5.69 14.63L3.06 12L5.69 9.37C8.27 6.79 12.18 6.07 15.48 7.46L14.32 8.62Z" fill="currentColor"/></svg>